<?xml version="1.0" encoding="utf-8"?>
<svg version="1.1" id="Layer_1" inkscape:version="1.1.2 (0a00cf5339, 2022-02-04)" sodipodi:docname="emedia.svg"
   xmlns:inkscape="http://www.inkscape.org/namespaces/inkscape"
   xmlns:sodipodi="http://sodipodi.sourceforge.net/DTD/sodipodi-0.dtd" xmlns:svg="http://www.w3.org/2000/svg"
   xmlns="http://www.w3.org/2000/svg" xmlns:xlink="http://www.w3.org/1999/xlink" x="0px" y="0px"
   viewBox="0 0 822.3 832.1" style="enable-background:new 0 0 822.3 832.1;" xml:space="preserve">
   <circle fill="#237D9D" cx="411.2" cy="416.1" r="401" />
   <path fill="#3696B2" d="M411.2,15c-221.5,0-401,179.6-401,401s179.6,401,401,401V15z" />
   <g>
      <path fill="#ffffff" d="M341.2,357.4H122.6c-44-0.8-44.1-71.1,0-71.9c0,0,218.6,0,218.6,0c18.5,0,33.5,16.1,33.5,36
		C374.7,341.3,359.7,357.4,341.2,357.4z" />
      <path fill="#ffffff" d="M341.2,452H122.6c-44-0.8-44.1-71.1,0-71.9c0,0,218.6,0,218.6,0c18.5,0,33.5,16.1,33.5,36
		C374.7,435.9,359.7,452,341.2,452z" />
      <path fill="#ffffff" d="M341.2,546.7H122.6c-44-0.8-44.1-71.1,0-71.9c0,0,218.6,0,218.6,0c18.5,0,33.5,16.1,33.5,36
		C374.7,530.6,359.7,546.7,341.2,546.7z" />
   </g>
   <g>
      <path fill="#ffffff" d="M638.5,525.1V306.5c0.8-44,71.1-44.1,71.9,0c0,0,0,218.6,0,218.6c0,18.5-16.1,33.5-36,33.5
		C654.6,558.7,638.5,543.7,638.5,525.1z" />
      <path fill="#ffffff" d="M543.8,525.1V306.5c0.8-44,71.1-44.1,71.9,0c0,0,0,218.6,0,218.6c0,18.5-16.1,33.5-36,33.5
		C559.9,558.7,543.8,543.7,543.8,525.1z" />
      <path fill="#ffffff" d="M449.2,525.1V306.5c0.8-44,71.1-44.1,71.9,0c0,0,0,218.6,0,218.6c0,18.5-16.1,33.5-36,33.5
		C465.3,558.7,449.2,543.7,449.2,525.1z" />
   </g>
</svg>