<?xml version="1.0" encoding="utf-8"?>
<!-- Generator: Adobe Illustrator 26.2.1, SVG Export Plug-In . SVG Version: 6.00 Build 0)  -->
<svg version="1.1" xmlns:svg="http://www.w3.org/2000/svg" xmlns="http://www.w3.org/2000/svg"
   xmlns:xlink="http://www.w3.org/1999/xlink" x="0px" y="0px" viewBox="0 0 277 197.9"
   style="enable-background:new 0 0 277 197.9;" xml:space="preserve">
   <style type="text/css">
      .strk {
         fill: none;
         stroke: #161649;
         stroke-width: 4;
      }
   </style>
   <path id="path2" class="strk" d="M43.8,167.6h57.6c2.6,0,4.7-3.6,4.7-8v-42.1c0-4.4,2.1-8,4.7-8l0,0c-2.6,0-4.7-3.6-4.7-8V50.6
	c0-4.4-2.1-8-4.7-8H43.8" />
   <line class="strk" x1="110.7" y1="109.4" x2="134.3" y2="109.4" />
   <path id="path4" fill="#161649" d="M127,72V50c0-7.5,6-13.5,13.5-13.5h29c2.9,0,5.7,0.9,8,2.6l12.6,9.2h73.4c7.5,0,13.5,6.1,13.5,13.5
	c0,0,0,0,0,0l0,0V72H127" />
   <path id="path6" fill="#5F739E"
      d="M263.5,57.4h-123c-7.5,0-13.5,6.1-13.5,13.5c0,0,0,0,0,0.1l0,0v77c0,7.5,6,13.5,13.5,13.5h123
	c7.5,0,13.5-6.1,13.5-13.6c0,0,0,0,0,0l0,0v-77C277,63.5,271,57.4,263.5,57.4C263.5,57.4,263.5,57.4,263.5,57.4L263.5,57.4" />
   <path id="path8" fill="#161649" d="M0,20.7V7.9C0,3.5,3.5,0,7.9,0h16.9c1.7,0,3.3,0.5,4.7,1.5l7.4,5.4h42.8c4.4,0,7.9,3.5,7.9,7.9
	c0,0,0,0,0,0l0,0v5.9L0,20.7" />
   <path id="path10" fill="#5F739E" d="M79.7,12.2H7.9c-4.4,0-7.9,3.6-7.9,7.9l0,0v44.9C0,69.4,3.5,73,7.9,73c0,0,0,0,0,0h71.8
	c4.4,0,7.9-3.5,7.9-7.9c0,0,0,0,0,0l0,0v-45C87.6,15.8,84,12.2,79.7,12.2C79.7,12.2,79.7,12.2,79.7,12.2L79.7,12.2" />
   <path id="path12" fill="#161649" d="M0,145.7v-12.8c0-4.4,3.5-7.9,7.9-7.9h16.9c1.7,0,3.3,0.5,4.7,1.5l7.4,5.4h42.8
	c4.4,0,7.9,3.5,7.9,7.9l0,0l0,0v5.9L0,145.7" />
   <path id="path14" fill="#5F739E" d="M79.7,137.2H7.9c-4.4,0-7.9,3.6-7.9,7.9l0,0v44.9c0,4.4,3.5,7.9,7.9,7.9c0,0,0,0,0,0h71.8
	c4.4,0,7.9-3.5,7.9-7.9l0,0l0,0v-45C87.6,140.8,84,137.2,79.7,137.2C79.7,137.2,79.7,137.2,79.7,137.2L79.7,137.2" />
   <path id="path5393" fill="#FFFFFF" d="M0,0" />
   <g>
      <path fill="#FFFFFF" d="M235.3,103.4V114h-23.6v26.1h-10.7V114h-23.5v-10.6h23.5V78.8h10.7v24.6H235.3z" />
   </g>
</svg>