<?xml version="1.0" encoding="UTF-8" standalone="no"?>
<svg
   viewBox="0 0 277 197.95"
   version="1.1"
   id="svg16"
   sodipodi:docname="templates.svg"
   inkscape:version="1.1.2 (0a00cf5339, 2022-02-04)"
   xmlns:inkscape="http://www.inkscape.org/namespaces/inkscape"
   xmlns:sodipodi="http://sodipodi.sourceforge.net/DTD/sodipodi-0.dtd"
   xmlns="http://www.w3.org/2000/svg"
   xmlns:svg="http://www.w3.org/2000/svg">
  <defs
     id="defs20" />
  <sodipodi:namedview
     id="namedview18"
     pagecolor="#ffffff"
     bordercolor="#666666"
     borderopacity="1.0"
     inkscape:pageshadow="2"
     inkscape:pageopacity="0.0"
     inkscape:pagecheckerboard="0"
     showgrid="false"
     inkscape:zoom="2.6612506"
     inkscape:cx="227.52461"
     inkscape:cy="164.77216"
     inkscape:window-width="1895"
     inkscape:window-height="1056"
     inkscape:window-x="0"
     inkscape:window-y="0"
     inkscape:window-maximized="1"
     inkscape:current-layer="svg16" />
  <path
     d="M43.77,167.57h57.58c2.59,0,4.69-3.58,4.69-8V117.43c0-4.42,2.1-8,4.69-8h0c-2.59,0-4.69-3.59-4.69-8V50.57c0-4.41-2.1-8-4.69-8H43.77"
     fill="none"
     stroke="#161649"
     stroke-width="4"
     id="path2" />
  <path
     d="M127,72V50a13.52,13.52,0,0,1,13.5-13.52h29a13.38,13.38,0,0,1,8,2.6l12.62,9.24H263.5A13.52,13.52,0,0,1,277,61.86h0V72H127"
     fill="#161649"
     id="path4" />
  <path
     d="M263.5,57.41h-123A13.52,13.52,0,0,0,127,71h0v77a13.53,13.53,0,0,0,13.5,13.52h123A13.53,13.53,0,0,0,277,147.94h0v-77a13.51,13.51,0,0,0-13.49-13.55h0"
     fill="#5f739e"
     id="path6" />
  <path
     d="M0,20.73V7.89A7.9,7.9,0,0,1,7.88,0H24.8a7.83,7.83,0,0,1,4.67,1.52l7.37,5.39H79.66a7.89,7.89,0,0,1,7.88,7.9h0v5.91H0"
     fill="#161649"
     id="path8" />
  <path
     d="M79.66,12.21H7.88A7.9,7.9,0,0,0,0,20.12H0V65.06A7.9,7.9,0,0,0,7.88,73H79.66a7.89,7.89,0,0,0,7.88-7.9h0V20.11a7.89,7.89,0,0,0-7.87-7.91h0"
     fill="#5f739e"
     id="path10" />
  <path
     d="M0,145.73V132.89A7.9,7.9,0,0,1,7.88,125H24.8a7.83,7.83,0,0,1,4.67,1.52l7.37,5.39H79.66a7.89,7.89,0,0,1,7.88,7.9h0v5.91H0"
     fill="#161649"
     id="path12" />
  <path
     d="M79.66,137.21H7.88A7.9,7.9,0,0,0,0,145.12H0v44.94A7.9,7.9,0,0,0,7.88,198H79.66a7.89,7.89,0,0,0,7.88-7.9h0V145.11a7.89,7.89,0,0,0-7.87-7.91h0"
     fill="#5f739e"
     id="path14" />
  <rect
     style="fill:#ffffff;stroke:#000000;stroke-width:5.99811;stroke-linejoin:bevel;paint-order:markers stroke fill"
     id="rect859"
     width="10.893892"
     height="80.774223"
     x="194.76154"
     y="72.537384" />
  <rect
     style="fill:#00ffff;stroke:#000000;stroke-width:4.39431;stroke-linejoin:bevel;paint-order:markers stroke fill"
     id="rect861"
     width="48.754093"
     height="12.763396"
     x="142.92546"
     y="104.15144" />
  <rect
     style="fill:#00ffff;stroke:#000000;stroke-width:4.39431;stroke-linejoin:bevel;paint-order:markers stroke fill"
     id="rect861-2"
     width="48.754093"
     height="12.763396"
     x="208.69675"
     y="104.40201" />
  <rect
     id="rect1108-2"
     width="4.3440862"
     height="12.7519"
     x="205.34906"
     y="104.41351"
     style="fill:#00ffff;fill-opacity:1;stroke-width:1.14481" />
  <path
     style="fill:#ffffff;fill-opacity:1;stroke:#000000;stroke-width:3.18745;stroke-linejoin:bevel;paint-order:markers stroke fill"
     d="m 142.94913,110.53315 v -6.11121 h 24.17912 24.17913 v 6.11121 6.11121 h -24.17913 -24.17912 z"
     id="path5198" />
  <path
     style="fill:#ffffff;fill-opacity:1;stroke:#000000;stroke-width:0.796863;stroke-linejoin:bevel;paint-order:markers stroke fill"
     d="m 205.38973,110.79886 v -6.31049 h 25.97263 25.97264 v 6.31049 6.31048 h -25.97264 -25.97263 z"
     id="path5354" />
  <rect
     id="rect1108"
     width="17.263977"
     height="12.763399"
     x="190.18497"
     y="104.18465"
     style="fill:#ffffff;fill-opacity:1;stroke-width:2.28325" />
  <path
     id="path5393" />
</svg>
