<svg xmlns="http://www.w3.org/2000/svg" viewBox="0 0 277 197.95">
  <path
    d="M43.77,167.57h57.58c2.59,0,4.69-3.58,4.69-8V117.43c0-4.42,2.1-8,4.69-8h0c-2.59,0-4.69-3.59-4.69-8V50.57c0-4.41-2.1-8-4.69-8H43.77"
    fill="none" stroke="#161649" stroke-width="4" />
  <path
    d="M127,72V50a13.52,13.52,0,0,1,13.5-13.52h29a13.38,13.38,0,0,1,8,2.6l12.62,9.24H263.5A13.52,13.52,0,0,1,277,61.86h0V72H127"
    fill="#161649" />
  <path
    d="M263.5,57.41h-123A13.52,13.52,0,0,0,127,71h0v77a13.53,13.53,0,0,0,13.5,13.52h123A13.53,13.53,0,0,0,277,147.94h0v-77a13.51,13.51,0,0,0-13.49-13.55h0"
    fill="#5f739e" />
  <path
    d="M0,20.73V7.89A7.9,7.9,0,0,1,7.88,0H24.8a7.83,7.83,0,0,1,4.67,1.52l7.37,5.39H79.66a7.89,7.89,0,0,1,7.88,7.9h0v5.91H0"
    fill="#161649" />
  <path
    d="M79.66,12.21H7.88A7.9,7.9,0,0,0,0,20.12H0V65.06A7.9,7.9,0,0,0,7.88,73H79.66a7.89,7.89,0,0,0,7.88-7.9h0V20.11a7.89,7.89,0,0,0-7.87-7.91h0"
    fill="#5f739e" />
  <path
    d="M0,145.73V132.89A7.9,7.9,0,0,1,7.88,125H24.8a7.83,7.83,0,0,1,4.67,1.52l7.37,5.39H79.66a7.89,7.89,0,0,1,7.88,7.9h0v5.91H0"
    fill="#161649" />
  <path
    d="M79.66,137.21H7.88A7.9,7.9,0,0,0,0,145.12H0v44.94A7.9,7.9,0,0,0,7.88,198H79.66a7.89,7.89,0,0,0,7.88-7.9h0V145.11a7.89,7.89,0,0,0-7.87-7.91h0"
    fill="#5f739e" />
</svg>