<svg xmlns="http://www.w3.org/2000/svg" width="38" height="32" viewBox="0 0 38 32"><path d="M30,8.84l0,0L18.28,3.75,12.77,6h0v0L6,8.85l0,0v0H6V25.06L17.57,30v0h.86v0L30,25.06V8.83Zm-.83,8.42-4.87,1.92V12.26l4.87-2.07ZM17.57,14.75V21.5l-5-1.93V12.64Zm-4.39-2.86,5-2.23,4.64,2.23-4.81,2Zm5.25,2.86,5-2.13v6.9l-5,2V14.75Zm5.49-3.33L19.26,9.17l4.55-2,5.07,2.18ZM18.27,4.74l4.4,1.9-4.49,2L13.87,6.58ZM12.74,7.05l4.35,2.09L12,11.4,7.22,9.35Zm-1,5.22v7l-4.9-1.91V10.19Zm-4.9,6,4.9,1.91v6.3l-4.9-2.08Zm5.76,8.58V20.55l5,1.93V29Zm5.82-4.4,5-2v6.35l-5,2.13V22.48Zm5.84,4V20.17l4.87-1.93v6.19Z" fill="#ffffff"/></svg>