<svg xmlns="http://www.w3.org/2000/svg" width="38" height="32" viewBox="0 0 38 32"><path d="M20.17,25.8c2.21.28,3.57-.64,3.77-2.44a2.53,2.53,0,0,0-1-2.52,13,13,0,0,0-2.73-.91V16.58h3c.36,0,.72,0,1.08,0,.62-.05,1-.26.66-1a2.42,2.42,0,0,1-.17-1.13A1.84,1.84,0,0,1,27,12.87a1.88,1.88,0,0,1,1.38,2.41c-.3,1.24-.27,1.29,1.08,1.3l3.31,0,.3.06v.83c0,3.28,0,6.55,0,9.83,0,1.79-.42,2.21-2.22,2.21H20.17Z" fill="#ffffff"/><path d="M19.08,16.69c0,1.27,0,2.51,0,3.76,0,1.07.09,1.13,1.13.85a1.92,1.92,0,0,1,2.42.93A1.69,1.69,0,0,1,22,24.55a3.28,3.28,0,0,1-1.94.13c-.71-.16-.94,0-.94.68v4.08a5.15,5.15,0,0,1-.62.09H7.74c-1.23,0-1.59-.32-1.59-1.51,0-3.67,0-7.33,0-11,0-.11,0-.22.06-.38H9.82c-.16,1.23-.2,2.5,1,3.18a4.08,4.08,0,0,0,2.17.55c1.71-.11,2.6-1.55,2.37-3.68Z" fill="#ffffff"/><path d="M6.13,15.62v-3q0-4.15,0-8.32c0-1.33.33-1.64,1.64-1.64H19V6.31c-2.6.12-3.79,1-3.84,2.75a2.5,2.5,0,0,0,1.18,2.37,12.43,12.43,0,0,0,2.66.81v3.38h-3.6c-1.3,0-1.34.07-1,1.27A1.87,1.87,0,0,1,13.68,19a1.82,1.82,0,0,1-2.1.05,1.88,1.88,0,0,1-.76-2.2c.29-1.17.23-1.26-1-1.27Z" fill="#ffffff"/></svg>