<svg xmlns="http://www.w3.org/2000/svg" width="38" height="32" viewBox="0 0 38 32"><path d="M24.55.86H10A1.78,1.78,0,0,0,8.2,2.64V28.05A1.77,1.77,0,0,0,10,29.82H27.83a1.77,1.77,0,0,0,1.77-1.77V6.36ZM25,3.52l2.21,2.41H25Zm3.14,24.53a.29.29,0,0,1-.28.28H10a.29.29,0,0,1-.28-.28V2.64A.28.28,0,0,1,10,2.36H23.48V6.67a.74.74,0,0,0,.74.75h3.89ZM12.32,8.8H25a.56.56,0,1,1,0,1.11H12.32a.56.56,0,1,1,0-1.11Zm13.22,4.31a.56.56,0,0,1-.56.56H12.32a.56.56,0,1,1,0-1.12H25A.56.56,0,0,1,25.54,13.11Zm0,3.63a.56.56,0,0,1-.56.56H12.32a.56.56,0,1,1,0-1.12H25A.56.56,0,0,1,25.54,16.74Zm0,3.69A.56.56,0,0,1,25,21H12.32a.56.56,0,1,1,0-1.11H25A.56.56,0,0,1,25.54,20.43Z" fill="#005b94"/></svg>