<?xml version="1.0" encoding="UTF-8" standalone="no"?>
<svg
   xmlns:dc="http://purl.org/dc/elements/1.1/"
   xmlns:cc="http://creativecommons.org/ns#"
   xmlns:rdf="http://www.w3.org/1999/02/22-rdf-syntax-ns#"
   xmlns:svg="http://www.w3.org/2000/svg"
   xmlns="http://www.w3.org/2000/svg"
   xmlns:sodipodi="http://sodipodi.sourceforge.net/DTD/sodipodi-0.dtd"
   xmlns:inkscape="http://www.inkscape.org/namespaces/inkscape"
   version="1.1"
   id="Capa_1"
   x="0px"
   y="0px"
   viewBox="0 0 38.000001 32.000001"
   xml:space="preserve"
   sodipodi:docname="programs.svg"
   inkscape:version="1.0.2 (1.0.2+r75+1)"
   width="38"
   height="32"><metadata
   id="metadata53"><rdf:RDF><cc:Work
       rdf:about=""><dc:format>image/svg+xml</dc:format><dc:type
         rdf:resource="http://purl.org/dc/dcmitype/StillImage" /><dc:title></dc:title></cc:Work></rdf:RDF></metadata><defs
   id="defs51" /><sodipodi:namedview
   pagecolor="#ffffff"
   bordercolor="#666666"
   borderopacity="1"
   objecttolerance="10"
   gridtolerance="10"
   guidetolerance="10"
   inkscape:pageopacity="0"
   inkscape:pageshadow="2"
   inkscape:window-width="1920"
   inkscape:window-height="1031"
   id="namedview49"
   showgrid="false"
   inkscape:zoom="3.3979586"
   inkscape:cx="18.052168"
   inkscape:cy="32.028587"
   inkscape:window-x="1366"
   inkscape:window-y="0"
   inkscape:window-maximized="1"
   inkscape:current-layer="g14"
   showborder="false" />
<g
   id="g16"
   style="fill:#ffffff;fill-opacity:1"
   transform="translate(-82.753328,-68.776909)">
	<g
   id="g14"
   style="fill:#ffffff;fill-opacity:1">
		<g
   id="g4"
   style="fill:#ffffff;fill-opacity:1"
   transform="matrix(0.16864159,0,0,0.15013683,84.753328,70.642297)">
			<path
   style="fill:#ffffff;fill-opacity:1"
   d="M 0,27.539 V 157.884 H 201.611 V 27.539 Z M 195.903,152.183 H 5.708 V 33.248 h 190.194 c 0.001,0 0.001,118.935 0.001,118.935 z"
   id="path2" />
		</g>
		<g
   id="g8"
   style="fill:#ffffff;fill-opacity:1"
   transform="matrix(0.16864159,0,0,0.15013683,84.753328,70.642297)">
			<polygon
   style="fill:#ffffff;fill-opacity:1"
   points="136.526,174.072 136.526,164.262 62.78,164.262 62.78,174.072 99.252,174.072 "
   id="polygon6" />
		</g>
		<g
   id="g12"
   style="fill:#ffffff;fill-opacity:1"
   transform="matrix(0.16864159,0,0,0.15013683,84.753328,70.642297)">
			<path
   style="fill:#ffffff;fill-opacity:1"
   d="m 87.632,121.549 c 0.361,0.168 0.752,0.251 1.142,0.251 0.612,0 1.217,-0.215 1.711,-0.616 l 31.909,-26.33 c 0.623,-0.501 0.977,-1.267 0.977,-2.076 0,-0.798 -0.358,-1.564 -0.977,-2.065 L 90.485,64.383 c -0.809,-0.662 -1.915,-0.798 -2.852,-0.354 -0.941,0.437 -1.546,1.385 -1.546,2.426 v 52.652 c -0.001,1.046 0.604,1.994 1.545,2.442 z m 3.829,-8.136 25.002,-20.632 z"
   id="path10"
   sodipodi:nodetypes="csccscccscccccc" />
		</g>
	</g>
</g>
<g
   id="g18"
   transform="translate(-82.753328,-68.776909)">
</g>
<g
   id="g20"
   transform="translate(-82.753328,-68.776909)">
</g>
<g
   id="g22"
   transform="translate(-82.753328,-68.776909)">
</g>
<g
   id="g24"
   transform="translate(-82.753328,-68.776909)">
</g>
<g
   id="g26"
   transform="translate(-82.753328,-68.776909)">
</g>
<g
   id="g28"
   transform="translate(-82.753328,-68.776909)">
</g>
<g
   id="g30"
   transform="translate(-82.753328,-68.776909)">
</g>
<g
   id="g32"
   transform="translate(-82.753328,-68.776909)">
</g>
<g
   id="g34"
   transform="translate(-82.753328,-68.776909)">
</g>
<g
   id="g36"
   transform="translate(-82.753328,-68.776909)">
</g>
<g
   id="g38"
   transform="translate(-82.753328,-68.776909)">
</g>
<g
   id="g40"
   transform="translate(-82.753328,-68.776909)">
</g>
<g
   id="g42"
   transform="translate(-82.753328,-68.776909)">
</g>
<g
   id="g44"
   transform="translate(-82.753328,-68.776909)">
</g>
<g
   id="g46"
   transform="translate(-82.753328,-68.776909)">
</g>
</svg>
