<?xml version="1.0" encoding="UTF-8" standalone="no"?>
<svg
   width="122.41947"
   zoomAndPan="magnify"
   viewBox="0 0 91.814604 96.288715"
   height="127.70567"
   preserveAspectRatio="xMidYMid meet"
   version="1.0"
   id="svg855"
   sodipodi:docname="Play Episodes Button.svg"
   inkscape:version="1.1.2 (0a00cf5339, 2022-02-04)"
   xmlns:inkscape="http://www.inkscape.org/namespaces/inkscape"
   xmlns:sodipodi="http://sodipodi.sourceforge.net/DTD/sodipodi-0.dtd"
   xmlns="http://www.w3.org/2000/svg"
   xmlns:svg="http://www.w3.org/2000/svg">
  <sodipodi:namedview
     id="namedview857"
     pagecolor="#ffffff"
     bordercolor="#666666"
     borderopacity="1.0"
     inkscape:pageshadow="2"
     inkscape:pageopacity="0.0"
     inkscape:pagecheckerboard="0"
     showgrid="false"
     inkscape:zoom="3.8244681"
     inkscape:cx="27.324061"
     inkscape:cy="60.008345"
     inkscape:window-width="1920"
     inkscape:window-height="1012"
     inkscape:window-x="0"
     inkscape:window-y="0"
     inkscape:window-maximized="1"
     inkscape:current-layer="svg855"
     fit-margin-top="0"
     fit-margin-left="0"
     fit-margin-right="0"
     fit-margin-bottom="0" />
  <defs
     id="defs843">
    <clipPath
       id="7aa534f1a7">
      <path
         d="M 60.097656,14.164062 H 180.76172 V 134.82422 H 60.097656 Z m 0,0"
         clip-rule="nonzero"
         id="path840" />
    </clipPath>
  </defs>
  <g
     clip-path="url(#7aa534f1a7)"
     id="g847"
     transform="matrix(0.76495835,0,0,0.79801584,-46.612498,-11.303146)">
    <path
       fill="#0097b2"
       d="m 180.76172,74.496094 c 0,1.972656 -0.0977,3.945312 -0.29297,5.910156 -0.19141,1.96875 -0.48047,3.921875 -0.86719,5.859375 -0.38672,1.9375 -0.86328,3.851563 -1.4375,5.742187 -0.57422,1.890626 -1.23828,3.75 -1.99609,5.574219 -0.75391,1.824219 -1.59766,3.609379 -2.53125,5.351559 -0.92969,1.74219 -1.94531,3.4375 -3.04297,5.07813 -1.09766,1.64453 -2.27344,3.23047 -3.52734,4.75781 -1.25391,1.52735 -2.57813,2.98828 -3.97657,4.38672 -1.39843,1.39453 -2.85937,2.72266 -4.38672,3.97656 -1.52734,1.25 -3.11328,2.42578 -4.7539,3.52344 -1.64453,1.09766 -3.33594,2.11328 -5.07813,3.04688 -1.74218,0.92968 -3.52734,1.77343 -5.35547,2.53124 -1.82421,0.75391 -3.68359,1.41797 -5.57421,1.99219 -1.89063,0.57422 -3.80469,1.05469 -5.74219,1.44141 -1.9375,0.38281 -3.89063,0.67187 -5.85547,0.86719 -1.96875,0.19531 -3.9375,0.28906 -5.91406,0.28906 -1.97656,0 -3.94531,-0.0937 -5.91406,-0.28906 -1.96485,-0.19532 -3.91797,-0.48438 -5.85547,-0.86719 -1.9375,-0.38672 -3.85157,-0.86719 -5.74219,-1.44141 -1.89063,-0.57422 -3.750001,-1.23828 -5.57422,-1.99219 -1.828125,-0.75781 -3.613281,-1.60156 -5.355469,-2.53124 -1.742187,-0.9336 -3.433593,-1.94922 -5.078125,-3.04688 -1.640625,-1.09766 -3.226562,-2.27344 -4.753906,-3.52344 -1.527344,-1.2539 -2.988281,-2.58203 -4.386719,-3.97656 -1.398437,-1.39844 -2.722656,-2.85937 -3.976562,-4.38672 -1.253907,-1.52734 -2.429688,-3.11328 -3.527344,-4.75781 -1.097656,-1.64063 -2.113281,-3.33594 -3.042969,-5.07813 -0.933594,-1.74218 -1.777344,-3.52734 -2.53125,-5.351559 -0.757812,-1.824219 -1.421875,-3.683593 -1.996094,-5.574219 -0.574218,-1.890624 -1.050781,-3.804687 -1.4375,-5.742187 -0.386718,-1.9375 -0.675781,-3.890625 -0.867187,-5.859375 -0.195313,-1.964844 -0.292969,-3.9375 -0.292969,-5.910156 0,-1.976563 0.09766,-3.949219 0.292969,-5.914063 0.191406,-1.96875 0.480469,-3.917969 0.867187,-5.859375 0.386719,-1.9375 0.863282,-3.851562 1.4375,-5.742187 0.574219,-1.890625 1.238282,-3.75 1.996094,-5.574219 0.753906,-1.824219 1.597656,-3.609375 2.53125,-5.351562 0.929688,-1.742188 1.945313,-3.4375 3.042969,-5.078126 1.097656,-1.644531 2.273437,-3.230468 3.527344,-4.757812 1.253906,-1.527344 2.578125,-2.988281 3.976562,-4.386719 1.398438,-1.394531 2.859375,-2.722656 4.386719,-3.972656 1.527344,-1.253906 3.113281,-2.429687 4.753906,-3.527344 1.644532,-1.097656 3.335938,-2.113281 5.078125,-3.046875 1.742188,-0.929687 3.527344,-1.773437 5.355469,-2.53125 1.824219,-0.753906 3.68359,-1.417968 5.57422,-1.992187 1.89062,-0.574219 3.80469,-1.054688 5.74219,-1.441407 1.9375,-0.382812 3.89062,-0.671874 5.85547,-0.867187 1.96875,-0.191406 3.9375,-0.289063 5.91406,-0.289063 1.97656,0 3.94531,0.09766 5.91406,0.289063 1.96484,0.195313 3.91797,0.484375 5.85547,0.867187 1.9375,0.386719 3.85156,0.867188 5.74219,1.441407 1.89062,0.574219 3.75,1.238281 5.57421,1.992187 1.82813,0.757813 3.61329,1.601563 5.35547,2.53125 1.74219,0.933594 3.4336,1.949219 5.07813,3.046875 1.64062,1.097657 3.22656,2.273438 4.7539,3.527344 1.52735,1.25 2.98829,2.578125 4.38672,3.972656 1.39844,1.398438 2.72266,2.859375 3.97657,4.386719 1.2539,1.527344 2.42968,3.113281 3.52734,4.757812 1.09766,1.640626 2.11328,3.335938 3.04297,5.078126 0.93359,1.742187 1.77734,3.527343 2.53125,5.351562 0.75781,1.824219 1.42187,3.683594 1.99609,5.574219 0.57422,1.890625 1.05078,3.804687 1.4375,5.742187 0.38672,1.941406 0.67578,3.890625 0.86719,5.859375 0.19531,1.964844 0.29297,3.9375 0.29297,5.914063 z m 0,0"
       fill-opacity="1"
       fill-rule="nonzero"
       id="path845" />
  </g>
  <path
     fill="#ffffff"
     d="m 12.33358,31.270766 h 58.398441 c 0.72656,0 1.32812,0.601563 1.32812,1.324219 v 40.019531 c 0,0.726563 -0.60156,1.328125 -1.32812,1.328125 H 12.33358 c -0.722657,0 -1.328125,-0.601562 -1.328125,-1.328125 V 32.594985 c 0,-0.722656 0.605468,-1.324219 1.328125,-1.324219 z M 69.407801,33.92311 H 13.661705 v 37.367188 h 55.746096 z m 0,0"
     fill-opacity="1"
     fill-rule="nonzero"
     id="path849" />
  <path
     fill="#ffffff"
     d="m 19.89608,23.82936 c -0.726563,0 -1.328125,0.601562 -1.328125,1.328125 0,0.722656 0.601562,1.324219 1.328125,1.324219 h 57.070311 v 38.695312 c 0,0.722656 0.60547,1.324219 1.32813,1.324219 0.72656,0 1.32812,-0.601563 1.32812,-1.324219 V 25.157485 c 0,-0.726563 -0.60156,-1.328125 -1.32812,-1.328125 z m 0,0"
     fill-opacity="1"
     fill-rule="nonzero"
     id="path851" />
  <path
     fill="#ffffff"
     d="m 36.868741,40.438735 11.21875,11.222656 c 0.52343,0.523438 0.52343,1.367188 0,1.890625 v 0.03906 l -11.21875,11.222656 c -0.52344,0.523437 -1.36719,0.523437 -1.89063,0 -0.28125,-0.28125 -0.40234,-0.601563 -0.40234,-0.964844 V 41.364516 c 0,-0.765625 0.60156,-1.367187 1.32812,-1.367187 0.35938,0 0.72266,0.160156 0.96485,0.441406 z m 8.40625,12.1875 -8.04688,-8.042969 v 16.046875 z m 0,0"
     fill-opacity="1"
     fill-rule="nonzero"
     id="path853" />
</svg>
