<?xml version="1.0" encoding="UTF-8" standalone="no"?>
<svg
   width="132.1438"
   zoomAndPan="magnify"
   viewBox="0 0 99.107851 99.635017"
   height="132.1438"
   preserveAspectRatio="xMidYMid meet"
   version="1.0"
   id="svg21"
   sodipodi:docname="TV Icon.svg"
   inkscape:version="1.1.2 (0a00cf5339, 2022-02-04)"
   xmlns:inkscape="http://www.inkscape.org/namespaces/inkscape"
   xmlns:sodipodi="http://sodipodi.sourceforge.net/DTD/sodipodi-0.dtd"
   xmlns="http://www.w3.org/2000/svg"
   xmlns:svg="http://www.w3.org/2000/svg">
  <sodipodi:namedview
     id="namedview23"
     pagecolor="#ffffff"
     bordercolor="#666666"
     borderopacity="1.0"
     inkscape:pageshadow="2"
     inkscape:pageopacity="0.0"
     inkscape:pagecheckerboard="0"
     showgrid="false"
     fit-margin-top="0"
     fit-margin-left="0"
     fit-margin-right="0"
     fit-margin-bottom="0"
     inkscape:zoom="3.8244681"
     inkscape:cx="39.090403"
     inkscape:cy="64.976356"
     inkscape:window-width="1920"
     inkscape:window-height="1012"
     inkscape:window-x="0"
     inkscape:window-y="0"
     inkscape:window-maximized="1"
     inkscape:current-layer="svg21" />
  <defs
     id="defs5">
    <clipPath
       id="d2fb4cd8ff">
      <path
         d="M 54.683594,12.507812 H 171.60156 V 129.42578 H 54.683594 Z m 0,0"
         clip-rule="nonzero"
         id="path2" />
    </clipPath>
  </defs>
  <g
     clip-path="url(#d2fb4cd8ff)"
     id="g9"
     transform="translate(-63.63633,-21.147336)">
    <path
       fill="#0097b2"
       d="m 113.14453,21.147336 c 27.40861,0 49.81751,22.408891 49.81751,49.817508 0,27.405287 -22.4089,49.817506 -49.81751,49.817506 -27.408615,0 -49.817505,-22.412219 -49.817505,-49.817506 0,-27.408617 22.40889,-49.817508 49.817505,-49.817508 z m 0,0"
       fill-opacity="1"
       fill-rule="evenodd"
       id="path7"
       style="stroke-width:0.85215" />
  </g>
  <path
     fill="#fffffe"
     d="m 53.902332,33.70226 c -0.22656,-0.617187 -0.58593,-1.175781 -1.05859,-1.648437 -0.86328,-0.863281 -2.00781,-1.339844 -3.23047,-1.339844 -1.21875,0 -2.36719,0.476563 -3.22656,1.339844 -0.47656,0.472656 -0.83203,1.03125 -1.05859,1.648437 z m 0,0"
     fill-opacity="1"
     fill-rule="evenodd"
     id="path11" />
  <path
     fill="#fffffe"
     d="M 22.914054,72.272573 H 68.410152 V 40.378042 H 22.914054 Z m 14.656248,-7.34375 c -0.28515,0 -0.51562,-0.230469 -0.51562,-0.511719 0,-0.285156 0.23047,-0.515625 0.51562,-0.515625 0.28516,0 0.51172,0.230469 0.51172,0.515625 0,0.28125 -0.22656,0.511719 -0.51172,0.511719 z M 34.08593,62.042104 c -0.08984,0.03906 -0.183594,0.05859 -0.277344,0.05859 -0.273438,0 -0.53125,-0.160156 -0.644532,-0.425781 -0.152343,-0.359375 0.01172,-0.769531 0.367188,-0.921875 l 4.875,-2.085938 c 0.35547,-0.15625 0.76953,0.01172 0.92188,0.367188 0.15234,0.355468 -0.0117,0.769531 -0.36719,0.921875 z m -0.230469,-6.082031 c 0.199219,-0.203125 0.523437,-0.203125 0.726562,0 0.199219,0.199219 0.199219,0.527344 0,0.726563 -0.203125,0.199218 -0.527343,0.199218 -0.726562,0 -0.203125,-0.199219 -0.203125,-0.527344 0,-0.726563 z m 2.714841,0 c 0.20313,-0.203125 0.52735,-0.203125 0.73047,0 0.19922,0.199219 0.19922,0.527344 0,0.726563 -0.20312,0.199218 -0.52734,0.199218 -0.73047,0 -0.199216,-0.199219 -0.199216,-0.527344 0,-0.726563 z m 2.92188,7.046875 c -0.28516,0 -0.51563,-0.230469 -0.51563,-0.511719 0,-0.285156 0.23047,-0.515625 0.51563,-0.515625 0.28515,0 0.51172,0.230469 0.51172,0.515625 0,0.28125 -0.22657,0.511719 -0.51172,0.511719 z m 4,0.625 -1.97266,4.921875 c -0.10937,0.273437 -0.37109,0.441406 -0.65234,0.441406 -0.0859,0 -0.17578,-0.01563 -0.26172,-0.05078 -0.35938,-0.144531 -0.53516,-0.554688 -0.39063,-0.914062 l 1.97266,-4.921876 c 0.14453,-0.359374 0.55078,-0.535156 0.91406,-0.390624 0.35938,0.144531 0.53516,0.554687 0.39063,0.914061 z m 0.32812,-5.4375 -1.52734,0.886719 c -0.10938,0.0625 -0.23047,0.09375 -0.35156,0.09375 -0.24219,0 -0.48047,-0.128907 -0.60938,-0.351563 -0.19531,-0.335937 -0.0781,-0.765625 0.25781,-0.960937 l 1.53125,-0.882813 c 0.33594,-0.195312 0.76563,-0.07813 0.95704,0.257813 0.19531,0.335937 0.082,0.765625 -0.25782,0.957031 z m 2.20313,9.933594 c -0.19922,0.203125 -0.52344,0.203125 -0.72656,0 -0.19922,-0.199219 -0.19922,-0.523438 0,-0.726563 0.20312,-0.199219 0.52734,-0.199219 0.72656,0 0.20312,0.203125 0.20312,0.527344 0,0.726563 z m 0,-2.714844 c -0.19922,0.199219 -0.52344,0.199219 -0.72656,0 -0.19922,-0.203125 -0.19922,-0.527344 0,-0.726562 0.20312,-0.203126 0.52734,-0.203126 0.72656,0 0.20312,0.199218 0.20312,0.523437 0,0.726562 z m 4.98828,3.410156 c -0.0898,0.03906 -0.18359,0.05469 -0.27734,0.05469 -0.26954,0 -0.53125,-0.160156 -0.64454,-0.425782 l -2.08593,-4.875 c -0.15235,-0.355468 0.0117,-0.769531 0.36718,-0.921874 0.35938,-0.152344 0.76954,0.01562 0.92188,0.371093 l 2.08984,4.871094 c 0.15235,0.359375 -0.0156,0.769531 -0.37109,0.925781 z m 2.74219,-3.894531 c -0.28516,0 -0.51563,-0.230469 -0.51563,-0.511719 0,-0.285156 0.23047,-0.515625 0.51563,-0.515625 0.28125,0 0.51172,0.230469 0.51172,0.515625 0,0.28125 -0.23047,0.511719 -0.51172,0.511719 z m 4.52734,-3.550781 c -0.10937,0.273437 -0.37109,0.441406 -0.65234,0.441406 -0.0859,0 -0.17578,-0.01563 -0.26172,-0.05078 l -4.92188,-1.972657 c -0.35937,-0.144531 -0.53515,-0.550781 -0.39062,-0.914062 0.14453,-0.359375 0.55469,-0.535156 0.91406,-0.390625 l 4.92188,1.972656 c 0.35937,0.144531 0.53515,0.554688 0.39062,0.914062 z m -4.25781,-5.417969 c 0.19922,-0.203125 0.52734,-0.203125 0.72656,0 0.20313,0.199219 0.20313,0.527344 0,0.726563 -0.19922,0.199218 -0.52734,0.199218 -0.72656,0 -0.19922,-0.199219 -0.19922,-0.527344 0,-0.726563 z m 2.71875,0 c 0.19922,-0.203125 0.52734,-0.203125 0.72656,0 0.19922,0.199219 0.19922,0.527344 0,0.726563 -0.19922,0.199218 -0.52734,0.199218 -0.72656,0 -0.20313,-0.199219 -0.20313,-0.527344 0,-0.726563 z m -2.98828,-8.242187 c 0.28125,0 0.51172,0.230468 0.51172,0.511718 0,0.285156 -0.23047,0.515625 -0.51172,0.515625 -0.28516,0 -0.51563,-0.230469 -0.51563,-0.515625 0,-0.28125 0.23047,-0.511718 0.51563,-0.511718 z m 3.48437,2.886718 c 0.35547,-0.152344 0.76953,0.01172 0.92188,0.367188 0.15234,0.359375 -0.0117,0.769531 -0.3711,0.921875 l -4.87109,2.085937 c -0.0898,0.03906 -0.18359,0.05859 -0.27734,0.05859 -0.27344,0 -0.53125,-0.160156 -0.64844,-0.425781 -0.15235,-0.355469 0.0156,-0.769531 0.37109,-0.921875 z m -5.40625,-0.964844 c 0.28516,0 0.51172,0.230469 0.51172,0.511719 0,0.285157 -0.23047,0.515625 -0.51172,0.515625 -0.28515,0 -0.51562,-0.230468 -0.51562,-0.515625 0,-0.28125 0.23047,-0.511719 0.51562,-0.511719 z m 0,12.339844 c 0.28516,0 0.51172,0.230469 0.51172,0.515625 0,0.28125 -0.23047,0.511719 -0.51172,0.511719 -0.28515,0 -0.51562,-0.230469 -0.51562,-0.511719 0,-0.285156 0.23047,-0.515625 0.51562,-0.515625 z m -4,-12.964844 1.96875,-4.921874 c 0.14453,-0.359376 0.55469,-0.535157 0.91406,-0.390626 0.35938,0.144532 0.53516,0.554688 0.39063,0.914063 l -1.96875,4.921875 c -0.10938,0.273438 -0.375,0.441406 -0.65234,0.441406 -0.0898,0 -0.17579,-0.01563 -0.26172,-0.05078 -0.35938,-0.144531 -0.53516,-0.554687 -0.39063,-0.914064 z m -0.33203,5.4375 1.53125,-0.886718 c 0.33594,-0.191406 0.76563,-0.07813 0.95703,0.257812 0.19531,0.335938 0.082,0.765625 -0.2539,0.960938 l -1.53125,0.882812 c -0.10938,0.0625 -0.23047,0.09375 -0.35157,0.09375 -0.24218,0 -0.47656,-0.125 -0.60937,-0.351562 -0.19141,-0.335938 -0.0781,-0.765625 0.25781,-0.957032 z m -0.25781,2.785157 c 0.19531,-0.335938 0.625,-0.453125 0.96094,-0.257813 l 1.53125,0.882813 c 0.33593,0.195312 0.44921,0.625 0.2539,0.960937 -0.1289,0.222656 -0.36328,0.351563 -0.60937,0.351563 -0.11719,0 -0.23828,-0.03125 -0.34766,-0.09375 l -1.53125,-0.882813 c -0.33594,-0.195312 -0.44922,-0.625 -0.25781,-0.960937 z M 45.296872,44.51476 c 0.20312,-0.199218 0.52734,-0.199218 0.72656,0 0.20312,0.203126 0.20312,0.527344 0,0.730469 -0.19922,0.199219 -0.52344,0.199219 -0.72656,0 -0.19922,-0.203125 -0.19922,-0.527343 0,-0.730469 z m 0,2.71875 c 0.20312,-0.199218 0.52734,-0.199218 0.72656,0 0.20312,0.203126 0.20312,0.527344 0,0.726563 -0.19922,0.203125 -0.52344,0.203125 -0.72656,0 -0.19922,-0.199219 -0.19922,-0.523437 0,-0.726563 z m -0.33594,4.792969 c 0,-0.386719 0.3125,-0.703125 0.69922,-0.703125 0.39062,0 0.70312,0.316406 0.70312,0.703125 v 1.765625 c 0,0.390625 -0.3125,0.703125 -0.70312,0.703125 -0.38672,0 -0.69922,-0.3125 -0.69922,-0.703125 z m 0,6.824219 c 0,-0.386719 0.3125,-0.699219 0.69922,-0.699219 0.39062,0 0.70312,0.3125 0.70312,0.699219 v 1.769531 c 0,0.386719 -0.3125,0.703125 -0.70312,0.703125 -0.38672,0 -0.69922,-0.316406 -0.69922,-0.703125 z m -0.88281,-3.441406 c -0.12891,0.226562 -0.36329,0.351562 -0.60547,0.351562 -0.1211,0 -0.24219,-0.03125 -0.35157,-0.09375 l -1.53125,-0.882812 c -0.33593,-0.195313 -0.44921,-0.625 -0.25781,-0.960938 0.19531,-0.335937 0.625,-0.449218 0.96094,-0.257812 l 1.53125,0.886718 c 0.33594,0.191407 0.44922,0.621094 0.25391,0.957032 z m -3.76563,-11.585938 c 0.35547,-0.152344 0.76953,0.01563 0.92188,0.371094 l 2.08593,4.875 c 0.15235,0.355469 -0.0117,0.769531 -0.37109,0.921875 -0.0898,0.03906 -0.18359,0.05469 -0.27344,0.05469 -0.27344,0 -0.53515,-0.15625 -0.64844,-0.425781 l -2.08593,-4.875 c -0.15235,-0.355469 0.0117,-0.765625 0.37109,-0.921875 z m -0.82031,5.816406 c 0.28515,0 0.51172,0.230469 0.51172,0.511719 0,0.285157 -0.22657,0.515625 -0.51172,0.515625 -0.28516,0 -0.51563,-0.230468 -0.51563,-0.515625 0,-0.28125 0.23047,-0.511719 0.51563,-0.511719 z m -1.92188,-1.921874 c 0.28516,0 0.51172,0.230468 0.51172,0.511718 0,0.285156 -0.23047,0.515625 -0.51172,0.515625 -0.28515,0 -0.51562,-0.230469 -0.51562,-0.515625 0,-0.28125 0.23047,-0.511718 0.51562,-0.511718 z m -4.531248,3.550781 c 0.144532,-0.359375 0.554688,-0.535157 0.914063,-0.390625 l 4.921875,1.972656 c 0.35938,0.144531 0.53516,0.550781 0.39063,0.910156 -0.10938,0.277344 -0.3711,0.445313 -0.65235,0.445313 -0.0859,0 -0.17578,-0.01953 -0.26172,-0.05078 L 33.42968,52.182729 c -0.359376,-0.144531 -0.535157,-0.554687 -0.390626,-0.914062 z m 0,0"
     fill-opacity="1"
     fill-rule="evenodd"
     id="path13" />
  <path
     fill="#fffffe"
     d="M 79.652332,35.104604 H 19.574211 c -1.0625,0 -1.929688,0.867188 -1.929688,1.933594 V 75.60851 c 0,1.066407 0.867188,1.933594 1.929688,1.933594 h 60.078121 c 1.06641,0 1.9336,-0.867187 1.9336,-1.933594 V 37.038198 c 0,-1.066406 -0.86719,-1.933594 -1.9336,-1.933594 z m -3.95312,7.515625 c 0.82812,0 1.5,0.675781 1.5,1.503907 0,0.828124 -0.67188,1.5 -1.5,1.5 -0.82813,0 -1.5,-0.671876 -1.5,-1.5 0,-0.828126 0.67187,-1.503907 1.5,-1.503907 z m 0,8.070313 c 0.82812,0 1.5,0.675781 1.5,1.503906 0,0.828125 -0.67188,1.5 -1.5,1.5 -0.82813,0 -1.5,-0.671875 -1.5,-1.5 0,-0.828125 0.67187,-1.503906 1.5,-1.503906 z m -5.88281,22.28125 c 0,0.390625 -0.31641,0.703125 -0.70313,0.703125 H 22.21093 c -0.390626,0 -0.703126,-0.3125 -0.703126,-0.703125 V 39.674917 c 0,-0.390625 0.3125,-0.703125 0.703126,-0.703125 h 46.902342 c 0.38672,0 0.70313,0.3125 0.70313,0.703125 z m 8.08593,-1.542969 h -4.40625 c -0.39062,0 -0.70312,-0.3125 -0.70312,-0.699219 0,-0.390625 0.3125,-0.703125 0.70312,-0.703125 h 4.40625 c 0.39063,0 0.70313,0.3125 0.70313,0.703125 0,0.386719 -0.3125,0.699219 -0.70313,0.699219 z m 0,-5.160156 h -4.40625 c -0.39062,0 -0.70312,-0.316407 -0.70312,-0.703125 0,-0.390625 0.3125,-0.703125 0.70312,-0.703125 h 4.40625 c 0.39063,0 0.70313,0.3125 0.70313,0.703125 0,0.386718 -0.3125,0.703125 -0.70313,0.703125 z m 0,-5.164063 h -4.40625 c -0.39062,0 -0.70312,-0.3125 -0.70312,-0.703125 0,-0.386719 0.3125,-0.703125 0.70312,-0.703125 h 4.40625 c 0.39063,0 0.70313,0.316406 0.70313,0.703125 0,0.390625 -0.3125,0.703125 -0.70313,0.703125 z m 0,0"
     fill-opacity="1"
     fill-rule="evenodd"
     id="path15" />
  <path
     fill="#fffffe"
     d="m 54.304682,31.585073 9.98437,-9.984375 c 0.27344,-0.273438 0.27344,-0.71875 0,-0.992188 -0.27343,-0.277343 -0.71875,-0.277343 -0.99218,0 l -9.98438,9.980469 c 0.17969,0.144531 0.35547,0.300781 0.52344,0.46875 0.16797,0.167969 0.32422,0.34375 0.46875,0.527344 z m 0,0"
     fill-opacity="1"
     fill-rule="evenodd"
     id="path17" />
  <path
     fill="#fffffe"
     d="m 44.921872,31.585073 c 0.14453,-0.183594 0.30078,-0.359375 0.46875,-0.527344 0.16796,-0.167969 0.34375,-0.324219 0.52734,-0.46875 l -9.984376,-9.984375 c -0.273438,-0.273437 -0.722656,-0.273437 -0.996094,0 -0.273438,0.277344 -0.273438,0.722656 0,0.996094 z m 0,0"
     fill-opacity="1"
     fill-rule="evenodd"
     id="path19" />
</svg>
