<?xml version="1.0" encoding="UTF-8" standalone="no"?>
<svg width="122.41947" zoomAndPan="magnify" viewBox="0 0 91.814604 96.288715" height="127.70567"
   preserveAspectRatio="xMidYMid meet" version="1.0" id="svg855" sodipodi:docname="Play Episodes Button.svg"
   inkscape:version="1.1.2 (0a00cf5339, 2022-02-04)" xmlns:inkscape="http://www.inkscape.org/namespaces/inkscape"
   xmlns:sodipodi="http://sodipodi.sourceforge.net/DTD/sodipodi-0.dtd" xmlns="http://www.w3.org/2000/svg"
   xmlns:svg="http://www.w3.org/2000/svg">
   <sodipodi:namedview id="namedview857" pagecolor="#ffffff" bordercolor="#666666" borderopacity="1.0"
      inkscape:pageshadow="2" inkscape:pageopacity="0.0" inkscape:pagecheckerboard="0" showgrid="false"
      inkscape:zoom="3.8244681" inkscape:cx="27.324061" inkscape:cy="60.008345" inkscape:window-width="1920"
      inkscape:window-height="1012" inkscape:window-x="0" inkscape:window-y="0" inkscape:window-maximized="1"
      inkscape:current-layer="svg855" fit-margin-top="0" fit-margin-left="0" fit-margin-right="0"
      fit-margin-bottom="0" />
   <defs id="defs843">
      <clipPath id="7aa534f1a7">
         <path d="M 60.097656,14.164062 H 180.76172 V 134.82422 H 60.097656 Z m 0,0" clip-rule="nonzero" id="path840" />
      </clipPath>
   </defs>
   <path fill="#ffffff"
      d="m 12.33358,31.270766 h 58.398441 c 0.72656,0 1.32812,0.601563 1.32812,1.324219 v 40.019531 c 0,0.726563 -0.60156,1.328125 -1.32812,1.328125 H 12.33358 c -0.722657,0 -1.328125,-0.601562 -1.328125,-1.328125 V 32.594985 c 0,-0.722656 0.605468,-1.324219 1.328125,-1.324219 z M 69.407801,33.92311 H 13.661705 v 37.367188 h 55.746096 z m 0,0"
      fill-opacity="1" fill-rule="nonzero" id="path849" />
   <path fill="#ffffff"
      d="m 19.89608,23.82936 c -0.726563,0 -1.328125,0.601562 -1.328125,1.328125 0,0.722656 0.601562,1.324219 1.328125,1.324219 h 57.070311 v 38.695312 c 0,0.722656 0.60547,1.324219 1.32813,1.324219 0.72656,0 1.32812,-0.601563 1.32812,-1.324219 V 25.157485 c 0,-0.726563 -0.60156,-1.328125 -1.32812,-1.328125 z m 0,0"
      fill-opacity="1" fill-rule="nonzero" id="path851" />
   <path fill="#ffffff"
      d="m 36.868741,40.438735 11.21875,11.222656 c 0.52343,0.523438 0.52343,1.367188 0,1.890625 v 0.03906 l -11.21875,11.222656 c -0.52344,0.523437 -1.36719,0.523437 -1.89063,0 -0.28125,-0.28125 -0.40234,-0.601563 -0.40234,-0.964844 V 41.364516 c 0,-0.765625 0.60156,-1.367187 1.32812,-1.367187 0.35938,0 0.72266,0.160156 0.96485,0.441406 z m 8.40625,12.1875 -8.04688,-8.042969 v 16.046875 z m 0,0"
      fill-opacity="1" fill-rule="nonzero" id="path853" />
</svg>