<?xml version="1.0" encoding="utf-8"?>
<!-- Generator: Adobe Illustrator 20.0.0, SVG Export Plug-In . SVG Version: 6.00 Build 0)  -->
<svg version="1.1" id="Layer_1" xmlns="http://www.w3.org/2000/svg" xmlns:xlink="http://www.w3.org/1999/xlink" x="0px" y="0px"
	 viewBox="0 0 504 360" style="enable-background:new 0 0 504 360;" xml:space="preserve">
<g>
	<g>
		<path d="M187.6,129.5c0.7,15.9-10.1,26.1-23.7,26.7c-13.6,0.6-24.6-9.5-25.2-23.6c-0.5-13.1,8.2-25.9,23.9-26.6
			C175.3,105.5,186.9,114.7,187.6,129.5z M146.8,130.3c0.6,13.6,8.2,23.5,18.5,23.1c8-0.3,14.7-7.5,14.1-21.6
			c-0.6-15.4-8.7-23.4-18.2-23C153.2,109.1,146.2,116.7,146.8,130.3z"/>
		<path d="M209.4,105.2c5.3-0.2,9.6,0.5,12.6,2.5c3.1,2.1,5.1,5.5,5.3,10.3c0.4,9.7-6.6,14.5-13.8,15.8c-1.1,0.2-2.4,0.2-3.2,0.2
			l-5.4-1.2l0.5,11.4c0.3,6.2,0.9,6.6,7.4,6.8l0.1,2.1l-20.5,0.9l-0.1-2.1c5.8-0.7,6.4-1.3,6.2-7.4l-1.2-29.3
			c-0.3-6.5-0.9-6.8-6.3-7l-0.1-2.1L209.4,105.2z M204.7,130.2c0.9,0.3,2.9,0.7,5.1,0.6c4.4-0.2,10.1-2.9,9.8-12.3
			c-0.3-8-5.4-11.1-11.2-10.9c-1.9,0.1-3.3,0.5-3.8,1c-0.5,0.5-0.7,1.4-0.6,3.3L204.7,130.2z"/>
		<path d="M269.6,138.9c-0.3,2.6-1.5,9.5-2,11.8l-36,1.5l-0.1-2.1c6.6-0.8,7.3-1.4,7-7.5l-1.2-29.1c-0.3-6.6-1-6.8-6.6-7.1l-0.1-2.1
			l33.2-1.4c0.1,1.8,0.7,6.8,1.1,10.7l-2.3,0.5c-0.8-3-1.7-4.7-2.7-6.2c-1.2-1.6-3.2-2-8.3-1.8l-5.2,0.2c-2.4,0.1-2.6,0.3-2.5,2.5
			l0.7,16.6l6.6-0.3c6.6-0.3,7.1-0.9,7.7-5.9l2.2-0.1l0.6,14.2l-2.2,0.1c-1.2-5.2-1.8-5.6-8.2-5.3l-6.6,0.3l0.6,13.6
			c0.1,3.5,0.7,5.1,2,6c1.4,0.8,4,0.7,7.6,0.6c5.3-0.2,7.4-0.9,9-2.8c1.3-1.6,2.5-4.2,3.5-7.2L269.6,138.9z"/>
		<path d="M321.2,102.6c-4.1,0.4-5.8,1.4-6,4.7c-0.1,2.3-0.2,5.6,0.1,12.4l1.2,29.6l-2.5,0.1l-32.9-37l-0.1,0l0.8,18.1
			c0.3,6.7,0.6,10.2,1,12.4c0.5,3.6,2.2,4.6,7.3,4.6l0.1,2.1l-17.6,0.7l-0.1-2.1c4.2-0.5,6-1.5,6.2-5.1c0.1-2.3,0.3-5.8,0-12.6
			l-0.7-16.1c-0.2-5.2-0.4-5.7-1.9-7.5c-1.6-1.8-3.1-2.3-6.6-2.5l-0.1-2.1l11.4-0.5l31.8,34.9l0.2,0l-0.7-17.2
			c-0.3-6.7-0.7-10.1-1-12.2c-0.5-3.2-2.2-4.2-7.5-4.3l-0.1-2.1l17.6-0.7L321.2,102.6z"/>
	</g>
	<g>
		<path d="M138.1,214.1v-2.1c5.9-0.4,6.6-0.9,6.6-7.2v-29.3c0-6.3-0.7-6.7-6.6-7.2v-2.1h20v2.1c-5.9,0.5-6.6,1-6.6,7.2v29.3
			c0,6.3,0.7,6.7,6.6,7.2v2.1H138.1z"/>
		<path d="M212.5,168.3c-4.1,0.2-5.8,1.2-6.2,4.4c-0.2,2.3-0.4,5.6-0.4,12.4v29.7h-2.5L172,176.4h-0.1v18.2c0,6.7,0.2,10.3,0.4,12.4
			c0.4,3.6,2,4.6,7.1,4.9v2.1h-17.6v-2.1c4.2-0.3,6.1-1.3,6.4-4.8c0.2-2.3,0.5-5.8,0.5-12.5v-16.1c0-5.2-0.1-5.8-1.5-7.5
			c-1.5-1.8-3-2.4-6.5-2.7v-2.1h11.4l30.3,36.2h0.2v-17.2c0-6.7-0.3-10.1-0.5-12.3c-0.4-3.2-2.1-4.3-7.3-4.6v-2.1h17.6V168.3z"/>
		<path d="M241.1,177.5c-1.3-4.6-3.5-9.9-9.7-9.9c-5.4,0-8,3.9-8,8c0,5.2,3.4,7.7,9.4,10.7c6.1,3.1,12.8,6.6,12.8,14.8
			c0,7.9-6.6,14.2-16.7,14.2c-3,0-5.4-0.5-7.2-1.1c-1.9-0.6-3-1.2-3.8-1.5c-0.6-1.6-1.6-7.9-2-11.7l2.3-0.6
			c1.2,4.6,4.6,12.2,12.2,12.2c5.4,0,8.6-3.4,8.6-8.6c0-5.2-3.9-7.9-9.4-10.8c-5.2-2.7-12.3-6.5-12.3-14.6c0-7.2,5.8-13.4,15.5-13.4
			c3.7,0,6.9,1,9.4,1.8c0.3,2.7,0.7,5.6,1.3,10.3L241.1,177.5z"/>
		<path d="M287.6,177.8c-0.8-3.6-1.5-5.5-2.5-6.8c-1.3-1.6-2.5-2.2-7.9-2.2h-4.9v36.1c0,5.9,0.6,6.6,7.5,7.1v2.1h-21.7v-2.1
			c6.6-0.4,7.2-1.2,7.2-7.1v-36.1h-4.2c-6.1,0-7.6,0.7-8.6,2.3c-0.9,1.3-1.6,3.4-2.4,6.7h-2.3c0.3-4.6,0.7-9.5,0.9-13.5h1.5
			c1,1.7,2,1.8,4.1,1.8h29.3c2,0,2.7-0.4,3.8-1.8h1.6c0,3.3,0.4,8.9,0.7,13.3L287.6,177.8z"/>
		<path d="M292.9,214.1v-2.1c5.9-0.4,6.6-0.9,6.6-7.2v-29.3c0-6.3-0.7-6.7-6.6-7.2v-2.1h20v2.1c-5.9,0.5-6.6,1-6.6,7.2v29.3
			c0,6.3,0.7,6.7,6.6,7.2v2.1H292.9z"/>
		<path d="M355.9,177.8c-0.8-3.6-1.5-5.5-2.5-6.8c-1.3-1.6-2.5-2.2-7.9-2.2h-4.9v36.1c0,5.9,0.6,6.6,7.5,7.1v2.1h-21.7v-2.1
			c6.6-0.4,7.2-1.2,7.2-7.1v-36.1h-4.2c-6.1,0-7.6,0.7-8.6,2.3c-0.9,1.3-1.6,3.4-2.4,6.7h-2.3c0.3-4.6,0.7-9.5,0.9-13.5h1.5
			c1,1.7,2,1.8,4.1,1.8H352c2,0,2.7-0.4,3.8-1.8h1.6c0,3.3,0.4,8.9,0.7,13.3L355.9,177.8z"/>
		<path d="M411.3,168.3c-4.4,0.4-6.1,1.4-6.4,4.4c-0.2,2.1-0.4,5.2-0.4,11.7v6.5c0,8.5-1.3,14.8-5.5,19.3c-3.4,3.5-8.3,5.2-13.3,5.2
			c-4.4,0-8.7-1-12-3.6c-4.4-3.3-6.4-8.9-6.4-17.5v-18.2c0-6.7-0.7-7-6.4-7.6v-2.1h19.6v2.1c-5.7,0.4-6.3,0.9-6.3,7.6v16.6
			c0,11.8,4.6,18.5,13.5,18.5c10.3,0,13.7-8.5,13.7-20.7v-6c0-6.5-0.2-9.5-0.5-11.8c-0.4-2.8-2-3.8-7.2-4.2v-2.1h17.7V168.3z"/>
		<path d="M453.2,177.8c-0.8-3.6-1.6-5.5-2.5-6.8c-1.3-1.6-2.5-2.2-7.9-2.2h-4.9v36.1c0,5.9,0.6,6.6,7.5,7.1v2.1h-21.7v-2.1
			c6.6-0.4,7.2-1.2,7.2-7.1v-36.1h-4.2c-6.1,0-7.6,0.7-8.6,2.3c-0.9,1.3-1.6,3.4-2.4,6.7h-2.3c0.3-4.6,0.7-9.5,0.9-13.5h1.5
			c1,1.7,2,1.8,4.1,1.8h29.3c2,0,2.7-0.4,3.8-1.8h1.6c0,3.3,0.4,8.9,0.7,13.3L453.2,177.8z"/>
		<path d="M496.3,202.4c-0.4,2.6-1.9,9.4-2.5,11.7h-36v-2.1c6.6-0.5,7.3-1.1,7.3-7.2v-29.2c0-6.6-0.7-6.9-6.3-7.4v-2.1H492
			c0,1.8,0.4,6.8,0.7,10.7l-2.3,0.4c-0.7-3-1.5-4.8-2.4-6.3c-1.1-1.6-3.1-2.1-8.2-2.1h-5.2c-2.4,0-2.6,0.2-2.6,2.4v16.6h6.6
			c6.6,0,7.1-0.6,8-5.5h2.2v14.2h-2.2c-1-5.2-1.5-5.7-8-5.7h-6.6v13.7c0,3.5,0.4,5.2,1.8,6.1c1.4,0.9,4,0.9,7.5,0.9
			c5.3,0,7.5-0.6,9.1-2.4c1.3-1.6,2.7-4.1,3.8-7L496.3,202.4z"/>
	</g>
	<g>
		<g>
			<path d="M135.3,115.8c0-0.1,0.9-10.9,0-15.1c-1.1-5.4-3.9-9.4-3.9-8.5c-1.1-5.5-4.7-11-9.1-10c2.8,10.5-1.2,11.7-2.8,13.9
				c-6.2,8.5-9,20.5-2.2,29.8c-1.1,0.9-1.9,2.3-1.9,4.2c-0.2,5.7-0.4,11.3-0.6,17c-10.7-13.8-31.4-24.8-54.4-20.7
				c-10,1.3-22.8,11.8-28.9,20.1c-0.4,0.5-2.3,3.5-4.4,6.6c-8.9,13.3-10.2,39.3-9.7,43.5c1.1,8.2,2.9,17.6,7.9,24.7
				c3.1,4.9,6,8.1,10.3,11.1c19.5,13.8,39.7,11,45,10c4.3-0.9,10.8-4.1,14.5-6.4c7.2-4.4,12.6-8.9,16.4-13.5
				c-0.3,4.8-0.6,9.5-0.9,14.3c-0.5,7.4-0.9,14.8-0.9,22.2c0,6.3-0.4,12.4,3.8,17.4c2.6,3.1,7.1,2.8,9.1,0c0.5-0.8,1.1-2.7,1.6-3.4
				c1.5-2.1,1.2-4.3,0.1-5.8c1.1-5.4,4.7-30.6,6-57.5c1.9-39.2,3-78,0.9-83.2C132.1,125.5,135.3,122.1,135.3,115.8z M110.2,177.3
				c-0.2,2.6-0.6,5.7-3,12.4c-4.1,9.8-8.5,15.4-13.9,24.5c-3.1,5.1-9.7,13.6-17.8,15.9c-9.3,2.6-19.1,1-29.9-5
				c-1.5-0.8-2.8-1.9-3.9-3.3c-4.9-6-7.1-12-7.9-20.1c0-7.8,0.3-17.5,8.7-34.4c2.2-4.5,4.7-8,7.9-11.8c1.2-1.4,6.8-6.1,8.3-6.9
				c1.6-0.8,2.8-1,4.5-1c0.4,0.8,0.9,2.1,1.5,2.8c2.4,2.8,5.8,4.4,9.4,5c4,0.6,8-0.4,11.5-2.3c1.8-1,3.3-2.4,4.9-3.7
				c2.7-2.2,4.2-2.3,6.2-2.7c3.6-0.6,5.8,0.5,8.4,2.9c1.9,1.6,1.5,1.6,2.9,3.8c2.3,4.2,2.5,9.7,2.5,13.2
				C110.6,170.1,110.5,172.9,110.2,177.3z M121,264.8c0-1.4,2.6-87.1,2.8-93.3c0.5-14,2.6-27.5,3.1-41.5c0-0.1,1.4,1.1,1.9,1
				C128.8,131.1,124.3,248.9,121,264.8z M128.2,121.7c-0.5-3.5-1.5-6-1.2-9.4c0.4-3.7,2.9-9.1,4.1-12.7
				C130.4,110.2,128.4,122.1,128.2,121.7z"/>
		</g>
	</g>
	<g>
		<ellipse transform="matrix(0.6769 -0.736 0.736 0.6769 -106.5652 104.3628)" cx="65.6" cy="173.6" rx="9.8" ry="5.3"/>
	</g>
	<path d="M252.5,268.6l-116.6-3.2L137,223l116.6,3.2L252.5,268.6z M141.9,260.6c1.6,0,2.9-1.1,2.9-2.9c0-1.6-1.1-2.9-2.8-3
		c-1.6,0-2.9,1.2-2.9,2.8C139.1,259.3,140.3,260.5,141.9,260.6z M166.9,227c-10.7-0.3-17.3,8-17.6,17.1c-0.3,9.7,6.8,17.1,16,17.4
		c9.3,0.3,17.1-6.2,17.5-17.1C183.1,234.1,175.5,227.2,166.9,227z M165.8,228.8c6.6,0.2,12.1,6,11.7,16.7
		c-0.3,9.7-5.5,14.3-11.1,14.1c-7.2-0.2-12.2-7.3-11.9-16.9C154.8,233.3,160.2,228.6,165.8,228.8z M215,261.2
		c-1.1-0.3-2.3-0.9-3.6-2.5c-1.2-1.4-2.2-2.7-3.9-5.4c-1.5-2.3-3.5-5.8-4.3-7.5c3.8-1.5,6.6-4.1,6.7-8.5c0.1-3-1.2-5.4-3.1-6.7
		c-1.9-1.3-4.4-1.9-8.1-2l-12.6-0.4l0,1.4c3.9,0.5,4.3,0.6,4.2,4.9l-0.6,20.4c-0.1,4.3-0.6,4.6-4.8,4.8l0,1.4l13.3,0.4l0-1.4
		c-4-0.4-4.5-0.7-4.4-5.1l0.2-8.1l1.6,0c2.6,0.1,3.5,0.7,4.3,2.2c1.4,2.5,3.2,5.7,4.9,8.3c2.2,3.4,4.3,4.5,8.1,4.9
		c0.6,0.1,1.2,0.1,1.8,0.1L215,261.2z M194.2,245.4l0.4-12.5c0-1.4,0.3-2,0.6-2.2c0.4-0.3,1.3-0.5,2.8-0.4c3.9,0.1,7.4,2.3,7.2,7.7
		c-0.1,2.7-1,4.7-3,6.2c-1.3,1-3,1.3-5.6,1.3L194.2,245.4z M248.6,247.9l-12.9-0.4l0,1.4c5,0.6,5.3,0.9,5.2,4.5l-0.1,4.3
		c-0.1,2.1-0.7,2.7-1.7,3.2c-1.1,0.5-2.7,0.8-4.4,0.8c-9.8-0.3-13.8-8.9-13.6-16.2c0.3-9.4,6.1-14.9,13.9-14.7
		c4.8,0.1,8.6,1.9,9.7,8.2l1.4-0.3c-0.3-3.4-0.5-6.2-0.6-7.9c-1.6-0.4-5.5-1.6-9.7-1.8c-9.9-0.3-19.5,5.2-19.9,16.9
		c-0.3,10,6.9,17.2,18.1,17.5c4.1,0.1,8.2-0.9,11.4-1.5c-0.3-1.4-0.3-3-0.2-4.8l0.1-4.3c0.1-3,0.3-3.2,3.4-3.6L248.6,247.9z"/>
</g>
</svg>
