<svg data-name="Layer 1" xmlns="http://www.w3.org/2000/svg" viewBox="0 0 216.88 216.82">
  <path
    d="M11.43,30.38V9.55A9.6,9.6,0,0,1,21,0H69.42a17.37,17.37,0,0,1,12,4.55L89.69,12a17.37,17.37,0,0,0,12,4.56H196.9a9.59,9.59,0,0,1,9.58,9.58V43.65A2.39,2.39,0,0,1,204.09,46H117.72a9.83,9.83,0,0,1-6.17-1.93l-9.77-6.8a24.19,24.19,0,0,0-14.36-4.48l-73.6-.06a2.39,2.39,0,0,1-2.39-2.39Zm97,104.44a41,41,0,1,1-41,41,41,41,0,0,1,41-41h0ZM85.25,170H102.6V152.63a2.86,2.86,0,0,1,2.74-2.93h6.24a2.84,2.84,0,0,1,2.74,2.93V170h17.34a2.84,2.84,0,0,1,2.92,2.74V179a2.83,2.83,0,0,1-2.92,2.74H114.32V199a2.83,2.83,0,0,1-2.74,2.92h-6.24A2.84,2.84,0,0,1,102.6,199V181.7H85.25A2.85,2.85,0,0,1,82.32,179v-6.24A2.86,2.86,0,0,1,85.25,170ZM9.62,42.41a9.31,9.31,0,0,0-7,3.09A9.36,9.36,0,0,0,0,52.78L9.28,165.42a9.58,9.58,0,0,0,9.54,8.81H51.35a3.37,3.37,0,0,0,3.39-3.09,53.92,53.92,0,0,1,107.44,0,3.39,3.39,0,0,0,3.37,3.09H199.2a9.56,9.56,0,0,0,9.52-8.81l8.12-99.32a9.58,9.58,0,0,0-8.76-10.33c-.26,0-.52,0-.79,0H117.72a24.52,24.52,0,0,1-14.37-4.53l-9.78-6.8a10.1,10.1,0,0,0-6.15-2H19.31Z"
    fill="#5f739e" fill-rule="evenodd" />
</svg>