<?xml version="1.0" encoding="UTF-8" standalone="no"?>
<svg
   xmlns:dc="http://purl.org/dc/elements/1.1/"
   xmlns:cc="http://creativecommons.org/ns#"
   xmlns:rdf="http://www.w3.org/1999/02/22-rdf-syntax-ns#"
   xmlns:svg="http://www.w3.org/2000/svg"
   xmlns="http://www.w3.org/2000/svg"
   xmlns:sodipodi="http://sodipodi.sourceforge.net/DTD/sodipodi-0.dtd"
   xmlns:inkscape="http://www.inkscape.org/namespaces/inkscape"
   viewBox="0 0 309.99359 150.38007"
   width="309.99359"
   height="150.38007"
   version="1.1"
   id="svg61"
   sodipodi:docname="Entermedia Database Logo.svg"
   inkscape:version="0.92.3 (2405546, 2018-03-11)">
  <metadata
     id="metadata67">
    <rdf:RDF>
      <cc:Work
         rdf:about="">
        <dc:format>image/svg+xml</dc:format>
        <dc:type
           rdf:resource="http://purl.org/dc/dcmitype/StillImage" />
        <dc:title></dc:title>
      </cc:Work>
    </rdf:RDF>
  </metadata>
  <defs
     id="defs65" />
  <sodipodi:namedview
     pagecolor="#ffffff"
     bordercolor="#666666"
     borderopacity="1"
     objecttolerance="10"
     gridtolerance="10"
     guidetolerance="10"
     inkscape:pageopacity="0"
     inkscape:pageshadow="2"
     inkscape:window-width="1891"
     inkscape:window-height="977"
     id="namedview63"
     showgrid="false"
     fit-margin-top="0"
     fit-margin-left="0"
     fit-margin-right="0"
     fit-margin-bottom="0"
     inkscape:zoom="0.89571544"
     inkscape:cx="416.24353"
     inkscape:cy="-58.312905"
     inkscape:window-x="0"
     inkscape:window-y="0"
     inkscape:window-maximized="0"
     inkscape:current-layer="svg61" />
  <style
     id="style2">
		tspan { white-space:pre }
		.txt0 { font-size: 24px;fill: #ffffff;font-family: &quot;Arimo&quot;;font-weight: 700 } 
		.txt1 { font-size: 57px;fill: #ffffff;font-family: &quot;&quot;;font-weight: 400;font-style: italic } 
		.shp2 { fill: #ffffff } 
		.shp3 { fill: #5ba14f } 
		.shp4 { fill: #62b157 } 
		.shp5 { fill: #5ca150 } 
	</style>
  <text
     id="DATABASE "
     x="-1"
     y="-79.459969">
    <tspan
       x="-1"
       y="-79.459969"
       class="txt0"
       id="tspan4"
       style="font-weight:700;font-size:24px;font-family:Arimo;white-space:pre;fill:#ffffff">DATABASE</tspan>
  </text>
  <path
     style="fill:#62b157"
     inkscape:connector-curvature="0"
     d="m 0,22.930031 v 0 c 0,11.19 9.05,20.24 20.24,20.24 h 101.21 c 11.19,0 20.24,-9.05 20.24,-20.24 v 0 c 0,-11.19 -9.05,-20.2399997 -20.24,-20.2399997 H 20.24 C 9.05,2.6900313 0,11.740031 0,22.930031 Z"
     class="shp4"
     id="Shape 48" />
  <path
     style="fill:#5ca150"
     inkscape:connector-curvature="0"
     d="m 72.17,43.040031 c 11.19,0 49.29,0.13 49.29,0.13 11.19,0 20.24,-9.05 20.24,-20.24 v 0 c 0,-11.19 -9.05,-20.2399997 -20.24,-20.2399997 0,0 -38.09,-0.13 -49.29,-0.13 -0.37,19.2699997 0.47,7.4599997 0,40.4799997 z"
     class="shp5"
     id="path33" />
  <path
     style="fill:#62b157"
     inkscape:connector-curvature="0"
     d="m 0,78.600031 v 0 c 0,11.19 9.05,20.24 20.24,20.24 h 101.21 c 11.19,0 20.24,-9.05 20.24,-20.24 v 0 c 0,-11.19 -9.05,-20.24 -20.24,-20.24 H 20.24 c -11.19,0 -20.24,9.05 -20.24,20.24 z"
     class="shp4"
     id="path35" />
  <path
     style="fill:#5ca150"
     inkscape:connector-curvature="0"
     d="m 72.17,98.710031 c 11.19,0 49.29,0.13 49.29,0.13 11.19,0 20.24,-9.05 20.24,-20.24 v 0 c 0,-11.19 -9.05,-20.24 -20.24,-20.24 0,0 -38.09,-0.13 -49.29,-0.13 -0.37,19.27 0.47,7.46 0,40.48 z"
     class="shp5"
     id="path37" />
  <path
     style="fill:#62b157"
     inkscape:connector-curvature="0"
     d="m 0,129.20003 v 0 c 0,11.19 9.05,20.24 20.24,20.24 h 101.21 c 11.19,0 20.24,-9.05 20.24,-20.24 v 0 c 0,-11.19 -9.05,-20.24 -20.24,-20.24 H 20.24 c -11.19,0 -20.24,9.05 -20.24,20.24 z"
     class="shp4"
     id="path39" />
  <path
     style="fill:#5ca150"
     inkscape:connector-curvature="0"
     d="m 72.17,149.31003 c 11.19,0 49.29,0.13 49.29,0.13 11.19,0 20.24,-9.05 20.24,-20.24 v 0 c 0,-11.19 -9.05,-20.24 -20.24,-20.24 0,0 -38.09,-0.13 -49.29,-0.13 -0.37,19.27 0.47,7.46 0,40.48 z"
     class="shp5"
     id="path41" />
  <path
     style="fill:#62b157"
     inkscape:connector-curvature="0"
     d="m 288.27,3.1290857e-5 v 0 C 276.4,0.02003129 266.83,9.6300313 266.85,21.490031 l 0.18,107.279999 c 0.02,11.87 9.63,21.44 21.49,21.42 v 0 c 11.87,-0.02 21.44,-9.63 21.42,-21.49 L 309.77,21.420031 C 309.75,9.5500313 300.14,-0.01996871 288.28,3.1290857e-5 Z"
     class="shp4"
     id="path43" />
  <path
     style="fill:#5ca150"
     inkscape:connector-curvature="0"
     d="m 267.08,76.530031 c 0.02,11.87 -0.05,52.249999 -0.05,52.249999 0.02,11.87 9.63,21.44 21.49,21.42 v 0 c 11.87,-0.02 21.44,-9.63 21.42,-21.49 0,0 0.07,-40.379999 0.05,-52.249999 -20.42,-0.36 -7.91,0.52 -42.91,0.07 z"
     class="shp5"
     id="path45" />
  <path
     style="fill:#62b157"
     inkscape:connector-curvature="0"
     d="m 229.26,0.09003129 v 0 c -11.87,0.02 -21.44,9.63000001 -21.42,21.48999971 l 0.17,107.279999 c 0.02,11.87 9.63,21.44 21.49,21.42 v 0 c 11.87,-0.02 21.44,-9.63 21.42,-21.49 L 250.75,21.510031 C 250.73,9.6400313 241.12,0.07003129 229.26,0.09003129 Z"
     class="shp4"
     id="path47" />
  <path
     style="fill:#5ca150"
     inkscape:connector-curvature="0"
     d="m 208.07,76.620031 c 0.02,11.87 -0.05,52.249999 -0.05,52.249999 0.02,11.87 9.63,21.44 21.49,21.42 v 0 c 11.87,-0.02 21.44,-9.63 21.42,-21.49 0,0 0.07,-40.379999 0.05,-52.249999 -20.42,-0.36 -7.91,0.52 -42.91,0.07 z"
     class="shp5"
     id="path49" />
  <path
     style="fill:#62b157"
     inkscape:connector-curvature="0"
     d="m 175.62,0.18003129 v 0 c -11.87,0.02 -21.44,9.63000001 -21.42,21.48999971 l 0.17,107.279999 c 0.02,11.87 9.63,21.44 21.49,21.42 v 0 c 11.87,-0.02 21.44,-9.63 21.42,-21.49 L 197.11,21.600031 C 197.09,9.7300313 187.48,0.16003129 175.62,0.18003129 Z"
     class="shp4"
     id="path51" />
  <path
     style="fill:#5ca150"
     inkscape:connector-curvature="0"
     d="m 154.43,76.710031 c 0.02,11.87 -0.05,52.249999 -0.05,52.249999 0.02,11.87 9.63,21.44 21.49,21.42 v 0 c 11.87,-0.02 21.44,-9.63 21.42,-21.49 0,0 0.07,-40.379999 0.05,-52.239999 -20.42,-0.36 -7.91,0.52 -42.91,0.07 z"
     class="shp5"
     id="path53" />
  <path
     style="fill:#ffffff"
     inkscape:connector-curvature="0"
     d="m 805.01,142.40003 c 0,-7.5 -6.71,-13.56 -15.02,-13.56 -8.3,0 -15.02,6.06 -15.02,13.56 0,7.5 6.71,13.56 15.02,13.56 8.3,0 15.02,-6.06 15.02,-13.56 z"
     class="shp2"
     id="Shape 15" />
</svg>
